<svg width="24" height="24" viewBox="0 0 24 24" fill="none" xmlns="http://www.w3.org/2000/svg">
<path d="M4.5 4.5H22.5L20.25 14.25H6.75M20.25 17.25H7.5L3.75 1.5H1.5" stroke="#0B5C98" stroke-width="1.5" stroke-linecap="round" stroke-linejoin="round"/>
<path d="M18.75 21.75C19.5784 21.75 20.25 21.0784 20.25 20.25C20.25 19.4216 19.5784 18.75 18.75 18.75C17.9216 18.75 17.25 19.4216 17.25 20.25C17.25 21.0784 17.9216 21.75 18.75 21.75Z" stroke="#0B5C98" stroke-width="1.5" stroke-linecap="round" stroke-linejoin="round"/>
<path d="M9 21.75C9.82843 21.75 10.5 21.0784 10.5 20.25C10.5 19.4216 9.82843 18.75 9 18.75C8.17157 18.75 7.5 19.4216 7.5 20.25C7.5 21.0784 8.17157 21.75 9 21.75Z" stroke="#0B5C98" stroke-width="1.5" stroke-linecap="round" stroke-linejoin="round"/>
<circle cx="19" cy="5" r="5" fill="#DDB65D"/>
<path d="M19.216 2.936C18.9387 2.936 18.696 3.00267 18.488 3.136C18.2853 3.26933 18.1307 3.46133 18.024 3.712L17.48 3.456C17.64 3.056 17.8773 2.76267 18.192 2.576C18.5067 2.384 18.8747 2.288 19.296 2.288C19.5627 2.29867 19.8 2.34933 20.008 2.44C20.2213 2.53067 20.4 2.648 20.544 2.792C20.6933 2.936 20.808 3.10133 20.888 3.288C20.968 3.47467 21.0107 3.672 21.016 3.88C21.016 4.12 20.9627 4.35467 20.856 4.584C20.7547 4.808 20.6053 5.02933 20.408 5.248L18.44 7.4H21.056V8H17.624L17.432 7.52L19.96 4.784C20.0987 4.63467 20.208 4.488 20.288 4.344C20.368 4.19467 20.4053 4.04267 20.4 3.888C20.4 3.72267 20.3653 3.58133 20.296 3.464C20.2267 3.34667 20.136 3.248 20.024 3.168C19.912 3.088 19.784 3.02933 19.64 2.992C19.5013 2.95467 19.36 2.936 19.216 2.936Z" fill="white"/>
</svg>
