<svg width="61" height="60" viewBox="0 0 61 60" fill="none" xmlns="http://www.w3.org/2000/svg">
<path fill-rule="evenodd" clip-rule="evenodd" d="M33 35H35.5V37.5H33V35ZM35.5 37.5H38V40H35.5V37.5ZM35.5 40H38V42.5H35.5V40ZM40.5 40H43V42.5H40.5V40ZM40.5 42.5H43V45H40.5V42.5ZM33 40H35.5V42.5H33V40ZM38 40H40.5V42.5H38V40ZM38 42.5H40.5V45H38V42.5ZM45.5 40H48V42.5H45.5V40ZM45.5 37.5H48V40H45.5V37.5ZM48 35H50.5V37.5H48V35ZM43 40H45.5V42.5H43V40ZM43 42.5H45.5V45H43V42.5ZM40.5 45H43V47.5H40.5V45ZM38 45H40.5V47.5H38V45ZM43 45H45.5V47.5H43V45ZM45.5 45H48V47.5H45.5V45ZM40.5 47.5H43V50H40.5V47.5ZM35.5 47.5H38V50H35.5V47.5ZM38 47.5H40.5V50H38V47.5ZM33 47.5H35.5V50H33V47.5ZM33 50H35.5V52.5H33V50ZM35.5 52.5H38V55H35.5V52.5ZM38 52.5H40.5V55H38V52.5ZM43 52.5H45.5V55H43V52.5ZM45.5 52.5H48V55H45.5V52.5ZM43 47.5H45.5V50H43V47.5ZM45.5 47.5H48V50H45.5V47.5ZM48 45H50.5V47.5H48V45ZM48 42.5H50.5V45H48V42.5ZM48 50H50.5V52.5H48V50ZM48 47.5H50.5V50H48V47.5ZM50.5 45H53V47.5H50.5V45ZM50.5 42.5H53V45H50.5V42.5ZM53 50H55.5V52.5H53V50ZM53 45H55.5V47.5H53V45ZM53 47.5H55.5V50H53V47.5ZM48 40H50.5V42.5H48V40ZM33 42.5H35.5V45H33V42.5ZM30.5 42.5H33V45H30.5V42.5ZM30.5 45H33V47.5H30.5V45ZM35.5 45H38V47.5H35.5V45ZM28 45H30.5V47.5H28V45ZM33 45H35.5V47.5H33V45ZM28 47.5H30.5V50H28V47.5ZM28 50H30.5V52.5H28V50ZM28 2.5H30.5V5H28V2.5ZM30.5 5H33V7.5H30.5V5ZM28 10H30.5V12.5H28V10ZM30.5 12.5H33V15H30.5V12.5ZM28 15H30.5V17.5H28V15ZM30.5 15H33V17.5H30.5V15ZM30.5 17.5H33V20H30.5V17.5ZM30.5 20H33V22.5H30.5V20ZM28 22.5H30.5V25H28V22.5ZM30.5 22.5H33V25H30.5V22.5ZM28 25H30.5V27.5H28V25ZM3 27.5H5.5V30H3V27.5ZM5.5 30H8V32.5H5.5V30ZM10.5 27.5H13V30H10.5V27.5ZM10.5 30H13V32.5H10.5V30ZM13 27.5H15.5V30H13V27.5ZM15.5 30H18V32.5H15.5V30ZM18 27.5H20.5V30H18V27.5ZM20.5 30H23V32.5H20.5V30ZM20.5 27.5H23V30H20.5V27.5ZM23 27.5H25.5V30H23V27.5ZM25.5 27.5H28V30H25.5V27.5ZM28 30H30.5V32.5H28V30ZM33 30H35.5V32.5H33V30ZM35.5 27.5H38V30H35.5V27.5ZM38 27.5H40.5V30H38V27.5ZM40.5 27.5H43V30H40.5V27.5ZM38 32.5H40.5V35H38V32.5ZM33 55H35.5V57.5H33V55ZM30.5 55H33V57.5H30.5V55ZM30.5 32.5H33V35H30.5V32.5ZM28 32.5H30.5V35H28V32.5ZM28 35H30.5V37.5H28V35ZM28 37.5H30.5V40H28V37.5ZM55.5 35H58V37.5H55.5V35ZM53 37.5H55.5V40H53V37.5ZM55.5 42.5H58V45H55.5V42.5ZM43 32.5H45.5V35H43V32.5ZM45.5 30H48V32.5H45.5V30ZM55.5 30H58V32.5H55.5V30ZM55.5 32.5H58V35H55.5V32.5ZM53 32.5H55.5V35H53V32.5ZM55.5 52.5H58V55H55.5V52.5ZM53 55H55.5V57.5H53V55ZM48 55H50.5V57.5H48V55ZM55.5 55H58V57.5H55.5V55Z" fill="#0B5C98"/>
<path fill-rule="evenodd" clip-rule="evenodd" d="M38 5H55.5V22.5H38V5ZM5.5 5H23V22.5H5.5V5ZM5.5 37.5H23V55H5.5V37.5ZM45.5 12.5H48V15H45.5V12.5ZM13 12.5H15.5V15H13V12.5ZM13 45H15.5V47.5H13V45Z" stroke="#0B5C98" stroke-width="5"/>
</svg>
